<svg width="1440" height="250" viewBox="0 0 1440 250" fill="none" xmlns="http://www.w3.org/2000/svg">
<rect width="1440" height="250" fill="white"/>
<path d="M1440 0H0V250C0 132.825 322.278 11.9335 719.858 11.9048H720.142C1117.72 11.9335 1440 132.825 1440 250V0Z" fill="#E2001A"/>
<path d="M658.834 168.14C661.823 171.124 664.769 174.08 667.729 177.036C668.791 178.095 669.866 179.14 670.899 180.24C671.904 181.327 672.086 182.963 671.374 184.283C670.648 185.644 669.461 186.318 667.897 186.235C666.891 186.18 666.095 185.685 665.411 184.984C661.739 181.299 658.066 177.628 654.408 173.956C654.17 173.709 653.975 173.434 653.849 173.283C650.903 176.101 648.054 178.824 644.982 181.767C645.289 181.945 645.582 182.042 645.764 182.234C649.576 186.029 653.388 189.838 657.173 193.647C658.82 195.311 658.723 197.799 657.005 199.175C655.469 200.385 653.514 200.247 652.034 198.776C648.962 195.709 645.904 192.629 642.818 189.577C641.84 188.6 640.807 187.665 639.745 186.648C639.606 186.772 639.41 186.95 639.229 187.129C635.389 190.966 631.549 194.802 627.723 198.638C626.047 200.316 624.008 200.453 622.486 198.996C620.936 197.497 620.964 195.242 622.598 193.606C626.424 189.756 630.264 185.933 634.104 182.083C634.23 181.959 634.355 181.822 634.523 181.643C631.646 178.893 628.784 176.17 626.019 173.53C624.636 174.836 623.059 176.266 621.55 177.751C619.107 180.144 616.719 182.578 614.303 184.998C612.725 186.565 610.631 186.675 609.164 185.273C607.628 183.815 607.614 181.533 609.164 179.979C611.538 177.586 613.94 175.208 616.342 172.856C617.962 171.275 619.609 169.735 621.299 168.126C618.046 165.032 614.918 162.076 611.873 159.175C610.728 160.261 609.346 161.526 608.019 162.832C605.352 165.459 602.741 168.14 600.074 170.766C598.007 172.788 594.726 171.963 593.986 169.24C593.595 167.782 594.041 166.545 595.103 165.486C598.817 161.787 602.518 158.075 606.218 154.362C606.414 154.17 606.595 153.963 606.832 153.716C603.942 150.966 601.093 148.257 598.231 145.534C598.217 145.424 598.203 145.314 598.189 145.204C598.035 145.438 597.923 145.713 597.742 145.906C593.93 149.728 590.118 153.565 586.277 157.373C584.197 159.45 580.901 158.638 580.147 155.875C579.77 154.486 580.119 153.262 581.167 152.231C585.077 148.367 588.959 144.489 592.868 140.612C593.064 140.419 593.343 140.323 593.609 140.158C590.676 137.215 587.939 134.479 585.188 131.729C583.862 130.409 582.521 129.103 581.223 127.755C579.17 125.638 580.008 122.31 582.773 121.595C584.127 121.237 585.286 121.636 586.264 122.626C590.048 126.421 593.832 130.203 597.616 133.998C597.84 134.232 598.035 134.493 598.286 134.795C601.177 131.88 603.97 129.075 606.805 126.215C606.609 126.009 606.441 125.816 606.26 125.651C602.448 121.856 598.622 118.061 594.809 114.266C593.762 113.221 593.455 111.983 593.888 110.595C594.293 109.275 595.2 108.395 596.597 108.092C597.896 107.831 598.971 108.257 599.878 109.165C603.677 112.973 607.489 116.782 611.287 120.591C611.468 120.77 611.608 120.976 611.706 121.1C614.89 118.047 617.99 115.091 621.132 112.08C620.866 111.805 620.671 111.585 620.461 111.378C616.705 107.625 612.963 103.857 609.206 100.103C608.299 99.1956 607.852 98.1368 608.061 96.8718C608.299 95.4693 609.053 94.4517 610.449 94.0117C611.873 93.5717 613.158 93.888 614.219 94.9467C616.886 97.6143 619.526 100.282 622.207 102.936C623.519 104.228 624.888 105.48 626.298 106.813C628.993 104.091 631.786 101.286 634.635 98.4256C634.453 98.2331 634.3 98.0406 634.132 97.8618C630.348 94.0392 626.564 90.2166 622.765 86.4078C621.676 85.3215 621.215 84.0702 621.62 82.5852C622.36 79.9313 625.628 79.1201 627.625 81.1001C630.473 83.9327 633.28 86.8065 636.129 89.6391C637.386 90.8904 638.726 92.0592 640.109 93.3517C640.514 92.9254 641.03 92.3754 641.561 91.8392C645.08 88.3053 648.613 84.7852 652.132 81.2514C653.165 80.2201 654.408 79.8488 655.832 80.2614C657.173 80.6464 658.01 81.5676 658.29 82.9152C658.583 84.3315 658.08 85.514 657.047 86.5178C653.263 90.2854 649.506 94.0667 645.722 97.8343C645.554 97.9993 645.345 98.1093 645.247 98.1918C648.166 101.052 650.986 103.829 653.877 106.662C653.919 106.621 654.114 106.442 654.31 106.263C658.094 102.468 661.878 98.6731 665.663 94.8917C666.836 93.723 668.4 93.4205 669.824 94.0392C671.178 94.6442 672.002 96.0468 671.891 97.6281C671.821 98.6181 671.332 99.3881 670.648 100.089C666.891 103.843 663.135 107.597 659.379 111.351C659.197 111.53 659.03 111.708 658.806 111.956C661.948 114.94 665.048 117.91 668.302 121.004C668.33 120.962 668.427 120.715 668.595 120.536C672.421 116.727 676.261 112.918 680.087 109.11C681.065 108.133 682.252 107.776 683.592 108.175C684.891 108.56 685.757 109.44 686.064 110.746C686.413 112.176 685.98 113.4 684.933 114.445C682.084 117.25 679.264 120.082 676.415 122.887C675.312 123.974 674.181 125.019 673.008 126.119C675.912 129.048 678.705 131.866 681.568 134.754C682 134.314 682.391 133.902 682.796 133.489C686.371 129.914 689.946 126.325 693.521 122.75C695.099 121.169 697.207 121.045 698.659 122.434C700.209 123.905 700.223 126.201 698.645 127.783C694.847 131.591 691.035 135.4 687.237 139.195C687 139.443 686.706 139.635 686.371 139.91C686.65 140.213 686.832 140.405 687.027 140.598C690.937 144.489 694.861 148.367 698.771 152.272C700.419 153.922 700.405 156.356 698.757 157.758C697.249 159.037 695.21 158.955 693.73 157.483C691.063 154.83 688.424 152.148 685.743 149.508C684.374 148.161 682.964 146.868 681.693 145.672C678.914 148.312 676.066 151.034 673.161 153.798C673.427 154.073 673.622 154.293 673.832 154.5C677.546 158.226 681.274 161.939 684.989 165.679C687.069 167.769 686.287 171.083 683.536 171.866C682.112 172.265 680.883 171.839 679.85 170.808C676.387 167.342 672.924 163.877 669.475 160.412C669 159.945 668.539 159.463 668.288 159.202C665.104 162.186 661.99 165.156 658.834 168.14ZM662.968 153.702C662.758 153.496 662.604 153.317 662.451 153.152C658.974 149.673 655.511 146.194 652.034 142.702C650.302 140.969 650.302 138.838 652.02 137.119C653.849 135.29 655.664 133.462 657.522 131.646C659.351 129.859 661.222 128.113 663.149 126.284C659.882 123.162 656.768 120.192 653.626 117.209C653.598 117.236 653.444 117.374 653.291 117.525C649.8 120.99 646.309 124.455 642.832 127.92C641.002 129.735 638.977 129.749 637.162 127.948C635.473 126.27 633.797 124.579 632.093 122.915C630.11 120.976 628.114 119.065 626.298 117.319C623.226 120.247 620.112 123.204 616.984 126.188C617.166 126.38 617.305 126.531 617.459 126.683C620.936 130.134 624.399 133.585 627.876 137.037C629.705 138.852 629.705 140.942 627.862 142.771C626.466 144.159 625.097 145.548 623.687 146.923C621.425 149.109 619.149 151.254 616.817 153.482C620.112 156.617 623.226 159.587 626.424 162.64C626.508 162.544 626.689 162.282 626.913 162.049C630.362 158.611 633.825 155.173 637.274 151.75C638.922 150.113 640.974 150.113 642.608 151.75C644.577 153.73 646.532 155.723 648.529 157.676C650.26 159.367 652.062 160.99 653.779 162.612C656.74 159.766 659.826 156.755 662.968 153.702ZM631.227 167.989C634.132 170.918 636.995 173.791 639.885 176.693C642.804 173.764 645.652 170.89 648.529 167.975C645.61 165.032 642.762 162.159 639.871 159.271C636.981 162.2 634.132 165.06 631.227 167.989ZM659.141 139.993C662.186 142.894 665.104 145.686 667.813 148.271C670.662 145.576 673.594 142.812 676.61 139.952C673.636 137.105 670.718 134.328 667.925 131.674C665.076 134.369 662.158 137.133 659.141 139.993ZM611.818 148.257C614.652 145.576 617.585 142.812 620.573 139.965C617.599 137.119 614.68 134.342 611.971 131.756C609.123 134.452 606.19 137.229 603.202 140.062C606.162 142.881 609.067 145.644 611.818 148.257ZM639.787 120.179C642.608 117.511 645.541 114.72 648.543 111.873C645.582 109.041 642.678 106.263 639.983 103.678C637.12 106.387 634.202 109.151 631.2 111.997C634.16 114.816 637.064 117.594 639.787 120.179Z" fill="#E2001A"/>
<path d="M747.456 111.32V135H741.984V111.32H747.456ZM750.014 126.04C750.014 124.205 750.355 122.595 751.038 121.208C751.742 119.821 752.691 118.755 753.886 118.008C755.08 117.261 756.414 116.888 757.886 116.888C759.144 116.888 760.243 117.144 761.182 117.656C762.142 118.168 762.878 118.84 763.39 119.672V117.144H768.862V135H763.39V132.472C762.856 133.304 762.11 133.976 761.15 134.488C760.211 135 759.112 135.256 757.854 135.256C756.403 135.256 755.08 134.883 753.886 134.136C752.691 133.368 751.742 132.291 751.038 130.904C750.355 129.496 750.014 127.875 750.014 126.04ZM763.39 126.072C763.39 124.707 763.006 123.629 762.238 122.84C761.491 122.051 760.574 121.656 759.486 121.656C758.398 121.656 757.47 122.051 756.702 122.84C755.955 123.608 755.582 124.675 755.582 126.04C755.582 127.405 755.955 128.493 756.702 129.304C757.47 130.093 758.398 130.488 759.486 130.488C760.574 130.488 761.491 130.093 762.238 129.304C763.006 128.515 763.39 127.437 763.39 126.072ZM788.914 130.36V135H786.13C784.146 135 782.599 134.52 781.49 133.56C780.38 132.579 779.826 130.989 779.826 128.792V121.688H777.65V117.144H779.826V112.792H785.298V117.144H788.882V121.688H785.298V128.856C785.298 129.389 785.426 129.773 785.682 130.008C785.938 130.243 786.364 130.36 786.962 130.36H788.914ZM799.77 135.256C798.02 135.256 796.442 134.883 795.034 134.136C793.647 133.389 792.548 132.323 791.738 130.936C790.948 129.549 790.554 127.928 790.554 126.072C790.554 124.237 790.959 122.627 791.77 121.24C792.58 119.832 793.69 118.755 795.098 118.008C796.506 117.261 798.084 116.888 799.834 116.888C801.583 116.888 803.162 117.261 804.57 118.008C805.978 118.755 807.087 119.832 807.898 121.24C808.708 122.627 809.114 124.237 809.114 126.072C809.114 127.907 808.698 129.528 807.866 130.936C807.055 132.323 805.935 133.389 804.506 134.136C803.098 134.883 801.519 135.256 799.77 135.256ZM799.77 130.52C800.815 130.52 801.7 130.136 802.426 129.368C803.172 128.6 803.546 127.501 803.546 126.072C803.546 124.643 803.183 123.544 802.458 122.776C801.754 122.008 800.879 121.624 799.834 121.624C798.767 121.624 797.882 122.008 797.178 122.776C796.474 123.523 796.122 124.621 796.122 126.072C796.122 127.501 796.463 128.6 797.146 129.368C797.85 130.136 798.724 130.52 799.77 130.52ZM814.449 115.288C813.489 115.288 812.699 115.011 812.081 114.456C811.483 113.88 811.185 113.176 811.185 112.344C811.185 111.491 811.483 110.787 812.081 110.232C812.699 109.656 813.489 109.368 814.449 109.368C815.387 109.368 816.155 109.656 816.753 110.232C817.371 110.787 817.681 111.491 817.681 112.344C817.681 113.176 817.371 113.88 816.753 114.456C816.155 115.011 815.387 115.288 814.449 115.288ZM817.169 117.144V135H811.697V117.144H817.169ZM826.286 111.32V135H820.814V111.32H826.286ZM846.764 125.784C846.764 126.296 846.732 126.829 846.668 127.384H834.284C834.369 128.493 834.721 129.347 835.34 129.944C835.98 130.52 836.758 130.808 837.676 130.808C839.041 130.808 839.99 130.232 840.524 129.08H846.348C846.049 130.253 845.505 131.309 844.716 132.248C843.948 133.187 842.977 133.923 841.804 134.456C840.63 134.989 839.318 135.256 837.868 135.256C836.118 135.256 834.561 134.883 833.196 134.136C831.83 133.389 830.764 132.323 829.996 130.936C829.228 129.549 828.844 127.928 828.844 126.072C828.844 124.216 829.217 122.595 829.964 121.208C830.732 119.821 831.798 118.755 833.164 118.008C834.529 117.261 836.097 116.888 837.868 116.888C839.596 116.888 841.132 117.251 842.476 117.976C843.82 118.701 844.865 119.736 845.612 121.08C846.38 122.424 846.764 123.992 846.764 125.784ZM841.164 124.344C841.164 123.405 840.844 122.659 840.204 122.104C839.564 121.549 838.764 121.272 837.804 121.272C836.886 121.272 836.108 121.539 835.468 122.072C834.849 122.605 834.465 123.363 834.316 124.344H841.164Z" fill="#E2001A"/>
<path d="M744.032 146.616C743.477 146.616 743.008 146.424 742.624 146.04C742.261 145.656 742.08 145.187 742.08 144.632C742.08 144.077 742.261 143.608 742.624 143.224C743.008 142.84 743.477 142.648 744.032 142.648C744.587 142.648 745.045 142.84 745.408 143.224C745.792 143.608 745.984 144.077 745.984 144.632C745.984 145.187 745.792 145.656 745.408 146.04C745.045 146.424 744.587 146.616 744.032 146.616ZM745.472 170.808C745.472 172.365 745.077 173.507 744.288 174.232C743.499 174.957 742.347 175.32 740.832 175.32H739.136V172.856H740.352C741.163 172.856 741.728 172.696 742.048 172.376C742.389 172.056 742.56 171.512 742.56 170.744V149.464H745.472V170.808ZM765.634 149.464V167H762.722V164.408C762.167 165.304 761.388 166.008 760.386 166.52C759.404 167.011 758.316 167.256 757.122 167.256C755.756 167.256 754.53 166.979 753.442 166.424C752.354 165.848 751.49 164.995 750.849 163.864C750.231 162.733 749.921 161.357 749.921 159.736V149.464H752.801V159.352C752.801 161.08 753.239 162.413 754.114 163.352C754.988 164.269 756.183 164.728 757.698 164.728C759.255 164.728 760.482 164.248 761.378 163.288C762.274 162.328 762.722 160.931 762.722 159.096V149.464H765.634ZM780.022 167L773.142 159.256V167H770.23V143.32H773.142V157.24L779.894 149.464H783.958L775.702 158.2L783.99 167H780.022ZM802.379 157.56C802.379 158.115 802.347 158.701 802.283 159.32H788.267C788.374 161.048 788.96 162.403 790.027 163.384C791.115 164.344 792.427 164.824 793.963 164.824C795.222 164.824 796.267 164.536 797.099 163.96C797.952 163.363 798.55 162.573 798.891 161.592H802.027C801.558 163.277 800.619 164.653 799.211 165.72C797.803 166.765 796.054 167.288 793.963 167.288C792.299 167.288 790.806 166.915 789.483 166.168C788.182 165.421 787.158 164.365 786.411 163C785.664 161.613 785.291 160.013 785.291 158.2C785.291 156.387 785.654 154.797 786.379 153.432C787.104 152.067 788.118 151.021 789.419 150.296C790.742 149.549 792.256 149.176 793.963 149.176C795.627 149.176 797.099 149.539 798.379 150.264C799.659 150.989 800.64 151.992 801.323 153.272C802.027 154.531 802.379 155.96 802.379 157.56ZM799.371 156.952C799.371 155.843 799.126 154.893 798.635 154.104C798.144 153.293 797.472 152.685 796.619 152.28C795.787 151.853 794.859 151.64 793.835 151.64C792.363 151.64 791.104 152.109 790.059 153.048C789.035 153.987 788.448 155.288 788.299 156.952H799.371ZM808.815 152.728C809.412 151.683 810.287 150.829 811.439 150.168C812.591 149.507 813.903 149.176 815.375 149.176C816.953 149.176 818.372 149.549 819.631 150.296C820.889 151.043 821.881 152.099 822.607 153.464C823.332 154.808 823.695 156.376 823.695 158.168C823.695 159.939 823.332 161.517 822.607 162.904C821.881 164.291 820.879 165.368 819.599 166.136C818.34 166.904 816.932 167.288 815.375 167.288C813.86 167.288 812.527 166.957 811.375 166.296C810.244 165.635 809.391 164.792 808.815 163.768V167H805.903V143.32H808.815V152.728ZM820.719 158.168C820.719 156.845 820.452 155.693 819.919 154.712C819.385 153.731 818.66 152.984 817.743 152.472C816.847 151.96 815.855 151.704 814.767 151.704C813.7 151.704 812.708 151.971 811.791 152.504C810.895 153.016 810.169 153.773 809.615 154.776C809.081 155.757 808.815 156.899 808.815 158.2C808.815 159.523 809.081 160.685 809.615 161.688C810.169 162.669 810.895 163.427 811.791 163.96C812.708 164.472 813.7 164.728 814.767 164.728C815.855 164.728 816.847 164.472 817.743 163.96C818.66 163.427 819.385 162.669 819.919 161.688C820.452 160.685 820.719 159.512 820.719 158.168ZM834.856 167.288C833.213 167.288 831.72 166.915 830.376 166.168C829.053 165.421 828.008 164.365 827.24 163C826.493 161.613 826.12 160.013 826.12 158.2C826.12 156.408 826.504 154.829 827.272 153.464C828.061 152.077 829.128 151.021 830.472 150.296C831.816 149.549 833.32 149.176 834.984 149.176C836.648 149.176 838.152 149.549 839.496 150.296C840.84 151.021 841.896 152.067 842.664 153.432C843.453 154.797 843.848 156.387 843.848 158.2C843.848 160.013 843.442 161.613 842.632 163C841.842 164.365 840.765 165.421 839.4 166.168C838.034 166.915 836.52 167.288 834.856 167.288ZM834.856 164.728C835.901 164.728 836.882 164.483 837.8 163.992C838.717 163.501 839.453 162.765 840.008 161.784C840.584 160.803 840.872 159.608 840.872 158.2C840.872 156.792 840.594 155.597 840.04 154.616C839.485 153.635 838.76 152.909 837.864 152.44C836.968 151.949 835.997 151.704 834.952 151.704C833.885 151.704 832.904 151.949 832.008 152.44C831.133 152.909 830.429 153.635 829.896 154.616C829.362 155.597 829.096 156.792 829.096 158.2C829.096 159.629 829.352 160.835 829.864 161.816C830.397 162.797 831.101 163.533 831.976 164.024C832.85 164.493 833.81 164.728 834.856 164.728ZM856.509 167L852.349 160.472L848.349 167H845.309L850.973 158.296L845.309 149.464H848.605L852.765 155.96L856.733 149.464H859.773L854.141 158.136L859.805 167H856.509Z" fill="#4B4B4B"/>
</svg>
